<mxfile host="app.diagrams.net" agent="Mozilla/5.0 (X11; Linux x86_64) AppleWebKit/537.36 (KHTML, like Gecko) Chrome/128.0.0.0 Safari/537.36" version="26.2.14">
  <diagram name="Страница — 1" id="cx87deXltjfHF1S2yimA">
    <mxGraphModel dx="1226" dy="736" grid="0" gridSize="10" guides="1" tooltips="1" connect="1" arrows="1" fold="1" page="1" pageScale="1" pageWidth="827" pageHeight="1169" math="0" shadow="0">
      <root>
        <mxCell id="0" />
        <mxCell id="1" parent="0" />
        <mxCell id="efSBSFLCTSEaXXWCV4pW-64" style="edgeStyle=orthogonalEdgeStyle;rounded=0;orthogonalLoop=1;jettySize=auto;html=1;" edge="1" parent="1" source="efSBSFLCTSEaXXWCV4pW-2" target="efSBSFLCTSEaXXWCV4pW-28">
          <mxGeometry relative="1" as="geometry">
            <Array as="points">
              <mxPoint x="318" y="419" />
              <mxPoint x="426" y="419" />
              <mxPoint x="426" y="604" />
            </Array>
          </mxGeometry>
        </mxCell>
        <mxCell id="efSBSFLCTSEaXXWCV4pW-2" value="Users" style="swimlane;fontStyle=0;childLayout=stackLayout;horizontal=1;startSize=26;horizontalStack=0;resizeParent=1;resizeParentMax=0;resizeLast=0;collapsible=1;marginBottom=0;align=center;fontSize=14;" vertex="1" parent="1">
          <mxGeometry x="238" y="447" width="160" height="456" as="geometry" />
        </mxCell>
        <mxCell id="efSBSFLCTSEaXXWCV4pW-38" value="id: INTEGER (PK) NOT NULL" style="text;strokeColor=none;fillColor=none;spacingLeft=4;spacingRight=4;overflow=hidden;rotatable=0;points=[[0,0.5],[1,0.5]];portConstraint=eastwest;fontSize=12;whiteSpace=wrap;html=1;" vertex="1" parent="efSBSFLCTSEaXXWCV4pW-2">
          <mxGeometry y="26" width="160" height="38" as="geometry" />
        </mxCell>
        <mxCell id="efSBSFLCTSEaXXWCV4pW-3" value="fio: VARCHAR (255) NOT NULL" style="text;strokeColor=none;fillColor=none;spacingLeft=4;spacingRight=4;overflow=hidden;rotatable=0;points=[[0,0.5],[1,0.5]];portConstraint=eastwest;fontSize=12;whiteSpace=wrap;html=1;" vertex="1" parent="efSBSFLCTSEaXXWCV4pW-2">
          <mxGeometry y="64" width="160" height="41" as="geometry" />
        </mxCell>
        <mxCell id="efSBSFLCTSEaXXWCV4pW-4" value="login: VARCHAR (50) NOT NULL" style="text;strokeColor=none;fillColor=none;spacingLeft=4;spacingRight=4;overflow=hidden;rotatable=0;points=[[0,0.5],[1,0.5]];portConstraint=eastwest;fontSize=12;whiteSpace=wrap;html=1;" vertex="1" parent="efSBSFLCTSEaXXWCV4pW-2">
          <mxGeometry y="105" width="160" height="50" as="geometry" />
        </mxCell>
        <mxCell id="efSBSFLCTSEaXXWCV4pW-5" value="password: BYTEA NOT NULL" style="text;strokeColor=none;fillColor=none;spacingLeft=4;spacingRight=4;overflow=hidden;rotatable=0;points=[[0,0.5],[1,0.5]];portConstraint=eastwest;fontSize=12;whiteSpace=wrap;html=1;" vertex="1" parent="efSBSFLCTSEaXXWCV4pW-2">
          <mxGeometry y="155" width="160" height="44" as="geometry" />
        </mxCell>
        <mxCell id="efSBSFLCTSEaXXWCV4pW-6" value="active: BOOLEAN NOT NULL" style="text;strokeColor=none;fillColor=none;spacingLeft=4;spacingRight=4;overflow=hidden;rotatable=0;points=[[0,0.5],[1,0.5]];portConstraint=eastwest;fontSize=12;whiteSpace=wrap;html=1;" vertex="1" parent="efSBSFLCTSEaXXWCV4pW-2">
          <mxGeometry y="199" width="160" height="43" as="geometry" />
        </mxCell>
        <mxCell id="efSBSFLCTSEaXXWCV4pW-7" value="role_id: INTEGER (FK) NOT NULL" style="text;strokeColor=none;fillColor=none;spacingLeft=4;spacingRight=4;overflow=hidden;rotatable=0;points=[[0,0.5],[1,0.5]];portConstraint=eastwest;fontSize=12;whiteSpace=wrap;html=1;" vertex="1" parent="efSBSFLCTSEaXXWCV4pW-2">
          <mxGeometry y="242" width="160" height="45" as="geometry" />
        </mxCell>
        <mxCell id="efSBSFLCTSEaXXWCV4pW-8" value="email: VARCHAR (255) NULL" style="text;strokeColor=none;fillColor=none;spacingLeft=4;spacingRight=4;overflow=hidden;rotatable=0;points=[[0,0.5],[1,0.5]];portConstraint=eastwest;fontSize=12;whiteSpace=wrap;html=1;" vertex="1" parent="efSBSFLCTSEaXXWCV4pW-2">
          <mxGeometry y="287" width="160" height="40" as="geometry" />
        </mxCell>
        <mxCell id="efSBSFLCTSEaXXWCV4pW-11" value="photo_url: VARCHAR (255) NULL" style="text;strokeColor=none;fillColor=none;spacingLeft=4;spacingRight=4;overflow=hidden;rotatable=0;points=[[0,0.5],[1,0.5]];portConstraint=eastwest;fontSize=12;whiteSpace=wrap;html=1;" vertex="1" parent="efSBSFLCTSEaXXWCV4pW-2">
          <mxGeometry y="327" width="160" height="39" as="geometry" />
        </mxCell>
        <mxCell id="efSBSFLCTSEaXXWCV4pW-37" value="created_at: TIMESTAMP NOT NULL" style="text;strokeColor=none;fillColor=none;spacingLeft=4;spacingRight=4;overflow=hidden;rotatable=0;points=[[0,0.5],[1,0.5]];portConstraint=eastwest;fontSize=12;whiteSpace=wrap;html=1;" vertex="1" parent="efSBSFLCTSEaXXWCV4pW-2">
          <mxGeometry y="366" width="160" height="43" as="geometry" />
        </mxCell>
        <mxCell id="efSBSFLCTSEaXXWCV4pW-36" value="updated_at: TIMESTAMP NOT NULL" style="text;strokeColor=none;fillColor=none;spacingLeft=4;spacingRight=4;overflow=hidden;rotatable=0;points=[[0,0.5],[1,0.5]];portConstraint=eastwest;fontSize=12;whiteSpace=wrap;html=1;" vertex="1" parent="efSBSFLCTSEaXXWCV4pW-2">
          <mxGeometry y="409" width="160" height="47" as="geometry" />
        </mxCell>
        <mxCell id="efSBSFLCTSEaXXWCV4pW-39" style="edgeStyle=orthogonalEdgeStyle;rounded=0;orthogonalLoop=1;jettySize=auto;html=1;" edge="1" parent="1" source="efSBSFLCTSEaXXWCV4pW-13" target="efSBSFLCTSEaXXWCV4pW-7">
          <mxGeometry relative="1" as="geometry">
            <Array as="points">
              <mxPoint x="125" y="622" />
              <mxPoint x="225" y="622" />
              <mxPoint x="225" y="712" />
            </Array>
          </mxGeometry>
        </mxCell>
        <mxCell id="efSBSFLCTSEaXXWCV4pW-13" value="Roles" style="swimlane;fontStyle=0;childLayout=stackLayout;horizontal=1;startSize=26;horizontalStack=0;resizeParent=1;resizeParentMax=0;resizeLast=0;collapsible=1;marginBottom=0;align=center;fontSize=14;" vertex="1" parent="1">
          <mxGeometry x="45" y="653" width="160" height="247" as="geometry" />
        </mxCell>
        <mxCell id="efSBSFLCTSEaXXWCV4pW-35" value="id: INTEGER (PK) NOT NULL" style="text;strokeColor=none;fillColor=none;spacingLeft=4;spacingRight=4;overflow=hidden;rotatable=0;points=[[0,0.5],[1,0.5]];portConstraint=eastwest;fontSize=12;whiteSpace=wrap;html=1;" vertex="1" parent="efSBSFLCTSEaXXWCV4pW-13">
          <mxGeometry y="26" width="160" height="47" as="geometry" />
        </mxCell>
        <mxCell id="efSBSFLCTSEaXXWCV4pW-14" value="name: VARCHAR (255) NOT NULL" style="text;strokeColor=none;fillColor=none;spacingLeft=4;spacingRight=4;overflow=hidden;rotatable=0;points=[[0,0.5],[1,0.5]];portConstraint=eastwest;fontSize=12;whiteSpace=wrap;html=1;" vertex="1" parent="efSBSFLCTSEaXXWCV4pW-13">
          <mxGeometry y="73" width="160" height="42" as="geometry" />
        </mxCell>
        <mxCell id="efSBSFLCTSEaXXWCV4pW-15" value="&lt;div&gt;description: VARCHAR(1000) NULL&lt;/div&gt;" style="text;strokeColor=none;fillColor=none;spacingLeft=4;spacingRight=4;overflow=hidden;rotatable=0;points=[[0,0.5],[1,0.5]];portConstraint=eastwest;fontSize=12;whiteSpace=wrap;html=1;" vertex="1" parent="efSBSFLCTSEaXXWCV4pW-13">
          <mxGeometry y="115" width="160" height="42" as="geometry" />
        </mxCell>
        <mxCell id="efSBSFLCTSEaXXWCV4pW-16" value="created_at: TIMESTAMP NOT NULL" style="text;strokeColor=none;fillColor=none;spacingLeft=4;spacingRight=4;overflow=hidden;rotatable=0;points=[[0,0.5],[1,0.5]];portConstraint=eastwest;fontSize=12;whiteSpace=wrap;html=1;" vertex="1" parent="efSBSFLCTSEaXXWCV4pW-13">
          <mxGeometry y="157" width="160" height="43" as="geometry" />
        </mxCell>
        <mxCell id="efSBSFLCTSEaXXWCV4pW-17" value="updated_at: TIMESTAMP NOT NULL" style="text;strokeColor=none;fillColor=none;spacingLeft=4;spacingRight=4;overflow=hidden;rotatable=0;points=[[0,0.5],[1,0.5]];portConstraint=eastwest;fontSize=12;whiteSpace=wrap;html=1;" vertex="1" parent="efSBSFLCTSEaXXWCV4pW-13">
          <mxGeometry y="200" width="160" height="47" as="geometry" />
        </mxCell>
        <mxCell id="efSBSFLCTSEaXXWCV4pW-69" style="edgeStyle=orthogonalEdgeStyle;rounded=0;orthogonalLoop=1;jettySize=auto;html=1;entryX=1;entryY=0.5;entryDx=0;entryDy=0;" edge="1" parent="1" source="efSBSFLCTSEaXXWCV4pW-18" target="efSBSFLCTSEaXXWCV4pW-60">
          <mxGeometry relative="1" as="geometry">
            <Array as="points">
              <mxPoint x="738" y="339" />
              <mxPoint x="642" y="339" />
              <mxPoint x="642" y="642" />
            </Array>
          </mxGeometry>
        </mxCell>
        <mxCell id="efSBSFLCTSEaXXWCV4pW-18" value="Patients" style="swimlane;fontStyle=0;childLayout=stackLayout;horizontal=1;startSize=26;horizontalStack=0;resizeParent=1;resizeParentMax=0;resizeLast=0;collapsible=1;marginBottom=0;align=center;fontSize=14;" vertex="1" parent="1">
          <mxGeometry x="658" y="361" width="160" height="238" as="geometry" />
        </mxCell>
        <mxCell id="efSBSFLCTSEaXXWCV4pW-66" value="id: INTEGER (PK) NOT NULL" style="text;strokeColor=none;fillColor=none;spacingLeft=4;spacingRight=4;overflow=hidden;rotatable=0;points=[[0,0.5],[1,0.5]];portConstraint=eastwest;fontSize=12;whiteSpace=wrap;html=1;" vertex="1" parent="efSBSFLCTSEaXXWCV4pW-18">
          <mxGeometry y="26" width="160" height="38" as="geometry" />
        </mxCell>
        <mxCell id="efSBSFLCTSEaXXWCV4pW-19" value="fio: VARCHAR (255) NOT NULL" style="text;strokeColor=none;fillColor=none;spacingLeft=4;spacingRight=4;overflow=hidden;rotatable=0;points=[[0,0.5],[1,0.5]];portConstraint=eastwest;fontSize=12;whiteSpace=wrap;html=1;" vertex="1" parent="efSBSFLCTSEaXXWCV4pW-18">
          <mxGeometry y="64" width="160" height="41" as="geometry" />
        </mxCell>
        <mxCell id="efSBSFLCTSEaXXWCV4pW-20" value="date_of_birth: DATE NOT NULL" style="text;strokeColor=none;fillColor=none;spacingLeft=4;spacingRight=4;overflow=hidden;rotatable=0;points=[[0,0.5],[1,0.5]];portConstraint=eastwest;fontSize=12;whiteSpace=wrap;html=1;" vertex="1" parent="efSBSFLCTSEaXXWCV4pW-18">
          <mxGeometry y="105" width="160" height="43" as="geometry" />
        </mxCell>
        <mxCell id="efSBSFLCTSEaXXWCV4pW-67" value="updated_at: TIMESTAMP NOT NULL" style="text;strokeColor=none;fillColor=none;spacingLeft=4;spacingRight=4;overflow=hidden;rotatable=0;points=[[0,0.5],[1,0.5]];portConstraint=eastwest;fontSize=12;whiteSpace=wrap;html=1;" vertex="1" parent="efSBSFLCTSEaXXWCV4pW-18">
          <mxGeometry y="148" width="160" height="47" as="geometry" />
        </mxCell>
        <mxCell id="efSBSFLCTSEaXXWCV4pW-68" value="created_at: TIMESTAMP NOT NULL" style="text;strokeColor=none;fillColor=none;spacingLeft=4;spacingRight=4;overflow=hidden;rotatable=0;points=[[0,0.5],[1,0.5]];portConstraint=eastwest;fontSize=12;whiteSpace=wrap;html=1;" vertex="1" parent="efSBSFLCTSEaXXWCV4pW-18">
          <mxGeometry y="195" width="160" height="43" as="geometry" />
        </mxCell>
        <mxCell id="efSBSFLCTSEaXXWCV4pW-24" value="Documents" style="swimlane;fontStyle=0;childLayout=stackLayout;horizontal=1;startSize=26;horizontalStack=0;resizeParent=1;resizeParentMax=0;resizeLast=0;collapsible=1;marginBottom=0;align=center;fontSize=14;" vertex="1" parent="1">
          <mxGeometry x="453" y="447" width="160" height="348" as="geometry" />
        </mxCell>
        <mxCell id="efSBSFLCTSEaXXWCV4pW-40" value="id: INTEGER (PK) NOT NULL" style="text;strokeColor=none;fillColor=none;spacingLeft=4;spacingRight=4;overflow=hidden;rotatable=0;points=[[0,0.5],[1,0.5]];portConstraint=eastwest;fontSize=12;whiteSpace=wrap;html=1;" vertex="1" parent="efSBSFLCTSEaXXWCV4pW-24">
          <mxGeometry y="26" width="160" height="38" as="geometry" />
        </mxCell>
        <mxCell id="efSBSFLCTSEaXXWCV4pW-25" value="name: VARCHAR (255) NOT NULL" style="text;strokeColor=none;fillColor=none;spacingLeft=4;spacingRight=4;overflow=hidden;rotatable=0;points=[[0,0.5],[1,0.5]];portConstraint=eastwest;fontSize=12;whiteSpace=wrap;html=1;" vertex="1" parent="efSBSFLCTSEaXXWCV4pW-24">
          <mxGeometry y="64" width="160" height="43" as="geometry" />
        </mxCell>
        <mxCell id="efSBSFLCTSEaXXWCV4pW-26" value="data: BYTEA NOT NULL" style="text;strokeColor=none;fillColor=none;spacingLeft=4;spacingRight=4;overflow=hidden;rotatable=0;points=[[0,0.5],[1,0.5]];portConstraint=eastwest;fontSize=12;whiteSpace=wrap;html=1;" vertex="1" parent="efSBSFLCTSEaXXWCV4pW-24">
          <mxGeometry y="107" width="160" height="30" as="geometry" />
        </mxCell>
        <mxCell id="efSBSFLCTSEaXXWCV4pW-28" value="author_id: INTEGER (FK) NOT NULL" style="text;strokeColor=none;fillColor=none;spacingLeft=4;spacingRight=4;overflow=hidden;rotatable=0;points=[[0,0.5],[1,0.5]];portConstraint=eastwest;fontSize=12;whiteSpace=wrap;html=1;" vertex="1" parent="efSBSFLCTSEaXXWCV4pW-24">
          <mxGeometry y="137" width="160" height="39" as="geometry" />
        </mxCell>
        <mxCell id="efSBSFLCTSEaXXWCV4pW-60" value="patient_id: INTEGER (FK) NOT NULL" style="text;strokeColor=none;fillColor=none;spacingLeft=4;spacingRight=4;overflow=hidden;rotatable=0;points=[[0,0.5],[1,0.5]];portConstraint=eastwest;fontSize=12;whiteSpace=wrap;html=1;" vertex="1" parent="efSBSFLCTSEaXXWCV4pW-24">
          <mxGeometry y="176" width="160" height="39" as="geometry" />
        </mxCell>
        <mxCell id="efSBSFLCTSEaXXWCV4pW-27" value="subdirectory_type: subdirectories NOT NULL" style="text;strokeColor=none;fillColor=none;spacingLeft=4;spacingRight=4;overflow=hidden;rotatable=0;points=[[0,0.5],[1,0.5]];portConstraint=eastwest;fontSize=12;whiteSpace=wrap;html=1;" vertex="1" parent="efSBSFLCTSEaXXWCV4pW-24">
          <mxGeometry y="215" width="160" height="43" as="geometry" />
        </mxCell>
        <mxCell id="efSBSFLCTSEaXXWCV4pW-58" value="created_at: TIMESTAMP NOT NULL" style="text;strokeColor=none;fillColor=none;spacingLeft=4;spacingRight=4;overflow=hidden;rotatable=0;points=[[0,0.5],[1,0.5]];portConstraint=eastwest;fontSize=12;whiteSpace=wrap;html=1;" vertex="1" parent="efSBSFLCTSEaXXWCV4pW-24">
          <mxGeometry y="258" width="160" height="43" as="geometry" />
        </mxCell>
        <mxCell id="efSBSFLCTSEaXXWCV4pW-59" value="updated_at: TIMESTAMP NOT NULL" style="text;strokeColor=none;fillColor=none;spacingLeft=4;spacingRight=4;overflow=hidden;rotatable=0;points=[[0,0.5],[1,0.5]];portConstraint=eastwest;fontSize=12;whiteSpace=wrap;html=1;" vertex="1" parent="efSBSFLCTSEaXXWCV4pW-24">
          <mxGeometry y="301" width="160" height="47" as="geometry" />
        </mxCell>
        <mxCell id="efSBSFLCTSEaXXWCV4pW-63" style="edgeStyle=orthogonalEdgeStyle;rounded=0;orthogonalLoop=1;jettySize=auto;html=1;" edge="1" parent="1" source="efSBSFLCTSEaXXWCV4pW-32" target="efSBSFLCTSEaXXWCV4pW-27">
          <mxGeometry relative="1" as="geometry">
            <Array as="points">
              <mxPoint x="738" y="684" />
            </Array>
          </mxGeometry>
        </mxCell>
        <mxCell id="efSBSFLCTSEaXXWCV4pW-32" value="SubDirectories" style="swimlane;fontStyle=0;childLayout=stackLayout;horizontal=1;startSize=26;horizontalStack=0;resizeParent=1;resizeParentMax=0;resizeLast=0;collapsible=1;marginBottom=0;align=center;fontSize=14;" vertex="1" parent="1">
          <mxGeometry x="658" y="700" width="160" height="71" as="geometry" />
        </mxCell>
        <mxCell id="efSBSFLCTSEaXXWCV4pW-33" value="name: VARCHAR NOT NULL" style="text;strokeColor=none;fillColor=none;spacingLeft=4;spacingRight=4;overflow=hidden;rotatable=0;points=[[0,0.5],[1,0.5]];portConstraint=eastwest;fontSize=12;whiteSpace=wrap;html=1;" vertex="1" parent="efSBSFLCTSEaXXWCV4pW-32">
          <mxGeometry y="26" width="160" height="45" as="geometry" />
        </mxCell>
      </root>
    </mxGraphModel>
  </diagram>
</mxfile>
